<svg width="1024" height="1024" viewBox="0 0 1024 1024" fill="none" xmlns="http://www.w3.org/2000/svg">
<path d="M420.066 560.608C414.493 580.58 406.927 599.943 397.484 618.405C382.418 646.081 372.385 646.081 365.579 646.081C350.832 646.081 335.446 630.702 319.919 600.368C311.851 583.931 304.819 567.006 298.862 549.693C294.537 537.468 290.389 524.888 286.667 512.414C281.349 494.695 276.847 477.792 273.834 463.972C266.744 430.555 260.646 395.579 258.165 377.223C257.81 374.813 257.385 372.403 256.818 370.135C256.818 369.356 256.392 368.611 256.18 367.867C255.754 366.308 255.329 364.784 254.832 363.296C254.549 362.41 254.159 361.56 253.84 360.674C253.521 359.788 252.812 358.016 252.245 356.74C251.677 355.464 251.394 354.968 250.933 354.118C250.472 353.267 249.728 351.708 249.054 350.574C248.381 349.44 248.026 348.873 247.53 348.023C247.033 347.172 246.076 345.79 245.332 344.727C244.587 343.664 244.162 343.097 243.559 342.317C242.957 341.538 241.964 340.262 241.113 339.27C240.262 338.278 239.802 337.782 239.128 337.073C238.454 336.364 237.32 335.159 236.398 334.273C235.477 333.387 234.98 332.891 234.271 332.253C233.562 331.616 232.251 330.517 231.223 329.666L228.989 327.93C227.89 327.115 226.72 326.335 225.444 325.556L223.246 324.103C221.935 323.323 220.588 322.579 219.24 321.87C218.567 321.516 217.929 321.126 217.255 320.807C215.305 319.851 213.356 319 211.335 318.22L210.945 318.043L209.882 317.724C208.074 317.051 206.337 316.449 204.387 315.917L202.26 315.421C200.735 315.031 199.176 314.677 197.616 314.393L194.922 314.039C193.504 313.826 192.086 313.649 190.632 313.507C189.179 313.366 188.682 313.507 187.69 313.507C186.697 313.507 184.889 313.507 183.471 313.507H183.188H181.557C179.324 313.507 177.09 313.755 174.821 314.074C155.452 316.76 137.935 327.001 126.097 342.559C114.26 358.117 109.065 377.727 111.649 397.103C113.67 412.092 117.427 435.126 122.284 460.215C124.482 471.697 126.893 483.639 129.374 495.404C133.841 515.957 142.03 546.787 152.665 579.141C162.338 609.555 174.271 639.203 188.363 667.839C241.822 772.094 314.318 793.994 365.614 793.994C389.7 794.178 413.547 789.215 435.557 779.436C457.567 769.658 477.232 755.29 493.235 737.295C484.433 725.764 476.551 713.56 469.661 700.796C447.008 659.016 432.651 610.928 420.066 560.608Z" fill="white"/>
<path d="M834.159 364.998L832.528 361.454C825.763 346.25 817.784 331.614 808.67 317.69L807.607 318.008L808.67 317.654C804.029 310.581 799.036 303.745 793.71 297.172C745.533 237.638 688.033 227.007 653.575 227.007C629.423 226.789 605.503 231.736 583.419 241.515C561.335 251.293 541.597 265.678 525.529 283.706C533.757 294.502 541.185 305.884 547.757 317.76C571.544 360.603 586.468 419.606 598.876 469.359C605.611 446.821 613.056 417.657 622.131 401.533C636.878 374.955 646.556 374.955 653.575 374.955C673.569 374.955 689.77 404.403 697.64 421.874L699.413 425.878C700.37 427.969 701.433 429.989 702.532 431.938L703.525 433.603C704.423 435.068 705.345 436.485 706.29 437.856C706.644 438.352 706.963 438.848 707.318 439.308C708.594 441.08 709.977 442.852 711.395 444.411L712.033 445.12C713.309 446.502 714.621 447.813 715.968 449.089L717.386 450.4C718.627 451.534 719.938 452.633 721.25 453.66L721.853 454.121L722.42 454.582C724.121 455.857 725.965 457.062 727.666 458.125L728.872 458.834C730.325 459.72 731.814 460.535 733.338 461.315L735.04 462.13C736.647 462.909 738.278 463.618 739.932 464.256L740.925 464.681C742.13 465.106 743.335 465.461 744.47 465.851C745.604 466.24 746.065 466.418 746.88 466.63L748.511 467.02C750.071 467.445 751.666 467.8 753.261 468.083L755.105 468.437C757.09 468.756 759.075 469.004 761.06 469.146H761.486C763.684 469.146 765.882 469.359 768.115 469.146H769.108C771.199 469.146 773.326 468.934 775.418 468.685H776.375C778.502 468.402 780.629 468.048 782.756 467.551L783.536 467.374C785.698 466.878 787.896 466.276 790.023 465.567H790.52C792.788 464.787 795.022 463.937 797.255 462.945C806.113 458.937 814.095 453.225 820.744 446.133C827.393 439.041 832.58 430.709 836.007 421.614C839.434 412.518 841.034 402.836 840.717 393.122C840.4 383.407 838.172 373.851 834.159 364.998Z" fill="white"/>
<path d="M843.873 313.827C841.64 313.508 839.406 313.366 837.173 313.26H835.507H835.259C842.677 325.506 849.319 338.206 855.146 351.284L856.777 354.827C864.608 372.076 867.299 391.215 864.53 409.954C861.761 428.692 853.649 446.236 841.163 460.485C828.678 474.734 812.35 485.084 794.132 490.297C775.915 495.509 756.581 495.363 738.444 489.877C728.447 527.014 712.849 572.905 698.776 600.368C683.213 630.702 667.827 646.082 653.08 646.082C646.451 646.082 636.383 646.082 621.175 618.406C611.732 599.944 604.167 580.581 598.593 560.608C593.914 544.91 589.553 528.113 585.299 510.784C583.74 504.441 582.215 498.027 580.655 491.578C567.362 435.623 552.295 377.046 525.885 329.667C520.866 320.578 515.29 311.809 509.188 303.409C504.31 296.545 499.043 289.966 493.412 283.706C477.345 265.678 457.607 251.293 435.523 241.515C413.439 231.736 389.519 226.789 365.366 227.007C330.767 227.007 273.586 237.638 225.09 297.101C240.433 303.961 253.776 314.613 263.861 328.055C273.946 341.496 280.44 357.283 282.732 373.928C285.143 391.646 290.992 425.984 298.082 458.728C298.826 462.271 299.713 465.815 300.67 469.784C305.952 455.857 311.305 444.163 317.154 431.087L321.302 421.909C329.172 404.191 345.372 374.92 365.366 374.92C372.456 374.92 382.063 374.92 396.811 401.497C406.608 420.436 414.413 440.34 420.101 460.889C424.852 476.871 429.248 493.81 433.395 510.855C434.601 515.852 435.806 520.848 436.94 525.81C451.12 584.953 465.726 641.936 491.463 689.208C496.838 699.103 502.841 708.643 509.436 717.77C514.481 724.595 519.926 731.115 525.743 737.296C541.743 755.294 561.408 769.665 583.419 779.443C605.429 789.222 629.278 794.184 653.364 793.995C704.767 793.995 777.262 772.095 830.615 667.84C858.053 614.366 880.919 535.377 889.604 495.298C897.758 457.806 904.387 418.932 907.329 396.997C908.636 387.369 908.031 377.579 905.547 368.186C903.064 358.792 898.752 349.981 892.858 342.255C886.964 334.53 879.603 328.043 871.198 323.165C862.792 318.286 853.507 315.113 843.873 313.827Z" fill="white"/>
</svg>
