<svg width="793" height="578" viewBox="0 0 793 578" fill="none" xmlns="http://www.w3.org/2000/svg">
<g clip-path="url(#clip0_1496_3066)">
<path d="M246.052 575.71C99.2142 575.71 49.238 389.754 38.0397 353.579C9.91782 262.739 1.36882 180.912 0.463819 172.324C-4.75816 122.774 34.9281 88.293 78.4841 88.293C111.464 88.293 149.74 108.063 154.81 156.027C155.69 164.094 162.395 233.673 186.114 309.486C210.867 388.609 237.126 419.038 256.036 419.038C286.574 419.038 305.207 340.494 321.679 265.707C333.813 210.608 346.932 155.086 372.83 105.767C417.888 19.9657 485.975 0 544.794 0C673.771 0 738.322 149.639 738.322 188.408C738.322 253.197 685.551 269.724 662.68 269.724C612.654 269.724 595.696 236.158 581.422 206.738C568.584 180.27 555.175 158.263 537.838 158.263C532.142 158.263 526.862 161.153 521.981 166.123C478.891 209.978 464.441 439.409 378.286 527.098C330.522 575.71 278.553 575.71 246.052 575.71Z" fill="url(#paint0_linear_1496_3066)"/>
<path d="M246.052 575.71C99.2142 575.71 49.238 389.754 38.0397 353.579C9.91782 262.739 1.36882 180.912 0.463819 172.324C-4.75816 122.774 34.9281 88.293 78.4841 88.293C111.464 88.293 149.74 108.063 154.81 156.027C155.69 164.094 162.395 233.673 186.114 309.486C210.867 388.609 237.126 419.038 256.036 419.038C286.574 419.038 305.207 340.494 321.679 265.707C333.813 210.608 346.932 155.086 372.83 105.767C417.888 19.9657 485.975 0 544.794 0C673.771 0 738.322 149.639 738.322 188.408C738.322 253.197 685.551 269.724 662.68 269.724C612.654 269.724 595.696 236.158 581.422 206.738C568.584 180.27 555.175 158.263 537.838 158.263C532.142 158.263 526.862 161.153 521.981 166.123C478.891 209.978 464.441 439.409 378.286 527.098C330.522 575.71 278.553 575.71 246.052 575.71Z" fill="url(#paint1_radial_1496_3066)"/>
<path d="M246.052 575.71C99.2142 575.71 49.238 389.754 38.0397 353.579C9.91782 262.739 1.36882 180.912 0.463819 172.324C-4.75816 122.774 34.9281 88.293 78.4841 88.293C111.464 88.293 149.74 108.063 154.81 156.027C155.69 164.094 162.395 233.673 186.114 309.486C210.867 388.609 237.126 419.038 256.036 419.038C286.574 419.038 305.207 340.494 321.679 265.707C333.813 210.608 346.932 155.086 372.83 105.767C417.888 19.9657 485.975 0 544.794 0C673.771 0 738.322 149.639 738.322 188.408C738.322 253.197 685.551 269.724 662.68 269.724C612.654 269.724 595.696 236.158 581.422 206.738C568.584 180.27 555.175 158.263 537.838 158.263C532.142 158.263 526.862 161.153 521.981 166.123C478.891 209.978 464.441 439.409 378.286 527.098C330.522 575.71 278.553 575.71 246.052 575.71Z" fill="url(#paint2_radial_1496_3066)"/>
<path d="M246.052 575.71C99.2142 575.71 49.238 389.754 38.0397 353.579C9.91782 262.739 1.36882 180.912 0.463819 172.324C-4.75816 122.774 34.9281 88.293 78.4841 88.293C111.464 88.293 149.74 108.063 154.81 156.027C155.69 164.094 162.395 233.673 186.114 309.486C210.867 388.609 237.126 419.038 256.036 419.038C286.574 419.038 305.207 340.494 321.679 265.707C333.813 210.608 346.932 155.086 372.83 105.767C417.888 19.9657 485.975 0 544.794 0C673.771 0 738.322 149.639 738.322 188.408C738.322 253.197 685.551 269.724 662.68 269.724C612.654 269.724 595.696 236.158 581.422 206.738C568.584 180.27 555.175 158.263 537.838 158.263C532.142 158.263 526.862 161.153 521.981 166.123C478.891 209.978 464.441 439.409 378.286 527.098C330.522 575.71 278.553 575.71 246.052 575.71Z" fill="url(#paint3_radial_1496_3066)"/>
<path d="M246.052 575.71C99.2142 575.71 49.238 389.754 38.0397 353.579C9.91782 262.739 1.36882 180.912 0.463819 172.324C-4.75816 122.774 34.9281 88.293 78.4841 88.293C111.464 88.293 149.74 108.063 154.81 156.027C155.69 164.094 162.395 233.673 186.114 309.486C210.867 388.609 237.126 419.038 256.036 419.038C286.574 419.038 305.207 340.494 321.679 265.707C333.813 210.608 346.932 155.086 372.83 105.767C417.888 19.9657 485.975 0 544.794 0C673.771 0 738.322 149.639 738.322 188.408C738.322 253.197 685.551 269.724 662.68 269.724C612.654 269.724 595.696 236.158 581.422 206.738C568.584 180.27 555.175 158.263 537.838 158.263C532.142 158.263 526.862 161.153 521.981 166.123C478.891 209.978 464.441 439.409 378.286 527.098C330.522 575.71 278.553 575.71 246.052 575.71Z" fill="url(#paint4_radial_1496_3066)"/>
<path d="M246.052 575.71C99.2142 575.71 49.238 389.754 38.0397 353.579C9.91782 262.739 1.36882 180.912 0.463819 172.324C-4.75816 122.774 34.9281 88.293 78.4841 88.293C111.464 88.293 149.74 108.063 154.81 156.027C155.69 164.094 162.395 233.673 186.114 309.486C210.867 388.609 237.126 419.038 256.036 419.038C286.574 419.038 305.207 340.494 321.679 265.707C333.813 210.608 346.932 155.086 372.83 105.767C417.888 19.9657 485.975 0 544.794 0C673.771 0 738.322 149.639 738.322 188.408C738.322 253.197 685.551 269.724 662.68 269.724C612.654 269.724 595.696 236.158 581.422 206.738C568.584 180.27 555.175 158.263 537.838 158.263C532.142 158.263 526.862 161.153 521.981 166.123C478.891 209.978 464.441 439.409 378.286 527.098C330.522 575.71 278.553 575.71 246.052 575.71Z" fill="url(#paint5_radial_1496_3066)"/>
<path d="M246.052 575.71C99.2142 575.71 49.238 389.754 38.0397 353.579C9.91782 262.739 1.36882 180.912 0.463819 172.324C-4.75816 122.774 34.9281 88.293 78.4841 88.293C111.464 88.293 149.74 108.063 154.81 156.027C155.69 164.094 162.395 233.673 186.114 309.486C210.867 388.609 237.126 419.038 256.036 419.038C286.574 419.038 305.207 340.494 321.679 265.707C333.813 210.608 346.932 155.086 372.83 105.767C417.888 19.9657 485.975 0 544.794 0C673.771 0 738.322 149.639 738.322 188.408C738.322 253.197 685.551 269.724 662.68 269.724C612.654 269.724 595.696 236.158 581.422 206.738C568.584 180.27 555.175 158.263 537.838 158.263C532.142 158.263 526.862 161.153 521.981 166.123C478.891 209.978 464.441 439.409 378.286 527.098C330.522 575.71 278.553 575.71 246.052 575.71Z" fill="url(#paint6_radial_1496_3066)"/>
<path d="M246.052 575.71C99.2142 575.71 49.238 389.754 38.0397 353.579C9.91782 262.739 1.36882 180.912 0.463819 172.324C-4.75816 122.774 34.9281 88.293 78.4841 88.293C111.464 88.293 149.74 108.063 154.81 156.027C155.69 164.094 162.395 233.673 186.114 309.486C210.867 388.609 237.126 419.038 256.036 419.038C286.574 419.038 305.207 340.494 321.679 265.707C333.813 210.608 346.932 155.086 372.83 105.767C417.888 19.9657 485.975 0 544.794 0C673.771 0 738.322 149.639 738.322 188.408C738.322 253.197 685.551 269.724 662.68 269.724C612.654 269.724 595.696 236.158 581.422 206.738C568.584 180.27 555.175 158.263 537.838 158.263C532.142 158.263 526.862 161.153 521.981 166.123C478.891 209.978 464.441 439.409 378.286 527.098C330.522 575.71 278.553 575.71 246.052 575.71Z" fill="url(#paint7_linear_1496_3066)"/>
<path d="M246.052 575.71C99.2142 575.71 49.238 389.754 38.0397 353.579C9.91782 262.739 1.36882 180.912 0.463819 172.324C-4.75816 122.774 34.9281 88.293 78.4841 88.293C111.464 88.293 149.74 108.063 154.81 156.027C155.69 164.094 162.395 233.673 186.114 309.486C210.867 388.609 237.126 419.038 256.036 419.038C286.574 419.038 305.207 340.494 321.679 265.707C333.813 210.608 346.932 155.086 372.83 105.767C417.888 19.9657 485.975 0 544.794 0C673.771 0 738.322 149.639 738.322 188.408C738.322 253.197 685.551 269.724 662.68 269.724C612.654 269.724 595.696 236.158 581.422 206.738C568.584 180.27 555.175 158.263 537.838 158.263C532.142 158.263 526.862 161.153 521.981 166.123C478.891 209.978 464.441 439.409 378.286 527.098C330.522 575.71 278.553 575.71 246.052 575.71Z" fill="url(#paint8_radial_1496_3066)"/>
<path d="M544.802 0C485.983 0 417.897 19.9657 372.838 105.767C346.94 155.086 333.822 210.608 321.687 265.707C317.691 283.839 313.57 302.188 309.186 319.59V568.883C331.443 562.576 355.353 550.445 378.295 527.098C464.45 439.409 478.899 209.978 521.989 166.123C526.87 161.153 532.15 158.263 537.846 158.263C555.183 158.263 568.592 180.27 581.431 206.738C595.705 236.158 612.662 269.724 662.688 269.724C685.56 269.724 738.33 253.197 738.33 188.408C738.33 149.639 673.779 0 544.802 0Z" fill="url(#paint9_radial_1496_3066)"/>
<path d="M246.052 575.71C99.2142 575.71 49.238 389.754 38.0397 353.579C9.91782 262.739 1.36882 180.912 0.463819 172.324C-4.75816 122.774 34.9281 88.293 78.4841 88.293C111.464 88.293 149.74 108.063 154.81 156.027C155.69 164.094 162.395 233.673 186.114 309.486C210.867 388.609 237.126 419.038 256.036 419.038C286.574 419.038 305.207 340.494 321.679 265.707C333.813 210.608 346.932 155.086 372.83 105.767C417.888 19.9657 485.975 0 544.794 0C673.771 0 738.322 149.639 738.322 188.408C738.322 253.197 685.551 269.724 662.68 269.724C612.654 269.724 595.696 236.158 581.422 206.738C568.584 180.27 555.175 158.263 537.838 158.263C532.142 158.263 526.862 161.153 521.981 166.123C478.891 209.978 464.441 439.409 378.286 527.098C330.522 575.71 278.553 575.71 246.052 575.71Z" fill="url(#paint10_radial_1496_3066)"/>
<path d="M246.052 575.71C99.2142 575.71 49.238 389.754 38.0397 353.579C9.91782 262.739 1.36882 180.912 0.463819 172.324C-4.75816 122.774 34.9281 88.293 78.4841 88.293C111.464 88.293 149.74 108.063 154.81 156.027C155.69 164.094 162.395 233.673 186.114 309.486C210.867 388.609 237.126 419.038 256.036 419.038C286.574 419.038 305.207 340.494 321.679 265.707C333.813 210.608 346.932 155.086 372.83 105.767C417.888 19.9657 485.975 0 544.794 0C673.771 0 738.322 149.639 738.322 188.408C738.322 253.197 685.551 269.724 662.68 269.724C612.654 269.724 595.696 236.158 581.422 206.738C568.584 180.27 555.175 158.263 537.838 158.263C532.142 158.263 526.862 161.153 521.981 166.123C478.891 209.978 464.441 439.409 378.286 527.098C330.522 575.71 278.553 575.71 246.052 575.71Z" fill="url(#paint11_radial_1496_3066)"/>
<path d="M246.052 575.71C99.2142 575.71 49.238 389.754 38.0397 353.579C9.91782 262.739 1.36882 180.912 0.463819 172.324C-4.75816 122.774 34.9281 88.293 78.4841 88.293C111.464 88.293 149.74 108.063 154.81 156.027C155.69 164.094 162.395 233.673 186.114 309.486C210.867 388.609 237.126 419.038 256.036 419.038C286.574 419.038 305.207 340.494 321.679 265.707C333.813 210.608 346.932 155.086 372.83 105.767C417.888 19.9657 485.975 0 544.794 0C673.771 0 738.322 149.639 738.322 188.408C738.322 253.197 685.551 269.724 662.68 269.724C612.654 269.724 595.696 236.158 581.422 206.738C568.584 180.27 555.175 158.263 537.838 158.263C532.142 158.263 526.862 161.153 521.981 166.123C478.891 209.978 464.441 439.409 378.286 527.098C330.522 575.71 278.553 575.71 246.052 575.71Z" fill="url(#paint12_radial_1496_3066)"/>
<path d="M246.052 575.71C99.2142 575.71 49.238 389.754 38.0397 353.579C9.91782 262.739 1.36882 180.912 0.463819 172.324C-4.75816 122.774 34.9281 88.293 78.4841 88.293C111.464 88.293 149.74 108.063 154.81 156.027C155.69 164.094 162.395 233.673 186.114 309.486C210.867 388.609 237.126 419.038 256.036 419.038C286.574 419.038 305.207 340.494 321.679 265.707C333.813 210.608 346.932 155.086 372.83 105.767C417.888 19.9657 485.975 0 544.794 0C673.771 0 738.322 149.639 738.322 188.408C738.322 253.197 685.551 269.724 662.68 269.724C612.654 269.724 595.696 236.158 581.422 206.738C568.584 180.27 555.175 158.263 537.838 158.263C532.142 158.263 526.862 161.153 521.981 166.123C478.891 209.978 464.441 439.409 378.286 527.098C330.522 575.71 278.553 575.71 246.052 575.71Z" fill="url(#paint13_radial_1496_3066)"/>
<path d="M246.052 575.71C99.2142 575.71 49.238 389.754 38.0397 353.579C9.91782 262.739 1.36882 180.912 0.463819 172.324C-4.75816 122.774 34.9281 88.293 78.4841 88.293C111.464 88.293 149.74 108.063 154.81 156.027C155.69 164.094 162.395 233.673 186.114 309.486C210.867 388.609 237.126 419.038 256.036 419.038C286.574 419.038 305.207 340.494 321.679 265.707C333.813 210.608 346.932 155.086 372.83 105.767C417.888 19.9657 485.975 0 544.794 0C673.771 0 738.322 149.639 738.322 188.408C738.322 253.197 685.551 269.724 662.68 269.724C612.654 269.724 595.696 236.158 581.422 206.738C568.584 180.27 555.175 158.263 537.838 158.263C532.142 158.263 526.862 161.153 521.981 166.123C478.891 209.978 464.441 439.409 378.286 527.098C330.522 575.71 278.553 575.71 246.052 575.71Z" fill="url(#paint14_radial_1496_3066)"/>
<path d="M714.537 88.293C708.724 88.293 702.875 88.8427 697.14 89.9734C724.404 129.342 738.045 170.584 738.045 188.404C738.045 253.194 685.273 269.72 662.403 269.72C644.554 269.72 630.917 265.445 620.108 258.612C620.007 259.016 619.908 259.419 619.807 259.825C616.593 272.683 614.055 286.757 609.663 300.452C601.219 326.785 589.83 356.864 577.666 380.14C564.556 405.232 551.576 419.913 536.104 419.143C518.509 418.268 504.244 395.558 486.513 331.372C480.795 310.677 475.501 287.987 470.594 265.707C458.423 210.444 443.484 154.873 417.941 105.767C376.219 25.5632 305.047 0 248.228 0C195.534 0 156.165 24.9828 125.239 56.4589C116.693 65.1577 107.357 76.8769 97.9805 90.6494C124.954 97.1564 150.46 117.488 154.533 156.022C155.335 163.369 160.966 221.723 179.878 289.344C185.304 272.39 193.216 247.283 211.598 206.738C220.606 188.17 228.735 175.926 236.071 168.461C242.798 161.614 248.856 158.787 254.31 158.787C260.192 158.787 280.278 164.178 299.831 232.891C324.082 318.094 342.129 453.696 410.887 525.694C441.214 557.453 483.654 578 542.472 578C594.082 578 637.11 555.239 667.789 523.577C718.231 471.512 745.871 385.432 755.731 353.579C783.785 262.957 791.645 180.996 792.558 172.324C797.779 122.774 756.094 88.293 714.537 88.293Z" fill="#316AFF"/>
<path d="M714.537 88.293C708.724 88.293 702.875 88.8427 697.14 89.9734C724.404 129.342 738.045 170.584 738.045 188.404C738.045 253.194 685.273 269.72 662.403 269.72C644.554 269.72 630.917 265.445 620.108 258.612C620.007 259.016 619.908 259.419 619.807 259.825C616.593 272.683 614.055 286.757 609.663 300.452C601.219 326.785 589.83 356.864 577.666 380.14C564.556 405.232 551.576 419.913 536.104 419.143C518.509 418.268 504.244 395.558 486.513 331.372C480.795 310.677 475.501 287.987 470.594 265.707C458.423 210.444 443.484 154.873 417.941 105.767C376.219 25.5632 305.047 0 248.228 0C195.534 0 156.165 24.9828 125.239 56.4589C116.693 65.1577 107.357 76.8769 97.9805 90.6494C124.954 97.1564 150.46 117.488 154.533 156.022C155.335 163.369 160.966 221.723 179.878 289.344C185.304 272.39 193.216 247.283 211.598 206.738C220.606 188.17 228.735 175.926 236.071 168.461C242.798 161.614 248.856 158.787 254.31 158.787C260.192 158.787 280.278 164.178 299.831 232.891C324.082 318.094 342.129 453.696 410.887 525.694C441.214 557.453 483.654 578 542.472 578C594.082 578 637.11 555.239 667.789 523.577C718.231 471.512 745.871 385.432 755.731 353.579C783.785 262.957 791.645 180.996 792.558 172.324C797.779 122.774 756.094 88.293 714.537 88.293Z" fill="url(#paint15_radial_1496_3066)"/>
<path d="M714.537 88.293C708.724 88.293 702.875 88.8427 697.14 89.9734C724.404 129.342 738.045 170.584 738.045 188.404C738.045 253.194 685.273 269.72 662.403 269.72C644.554 269.72 630.917 265.445 620.108 258.612C620.007 259.016 619.908 259.419 619.807 259.825C616.593 272.683 614.055 286.757 609.663 300.452C601.219 326.785 589.83 356.864 577.666 380.14C564.556 405.232 551.576 419.913 536.104 419.143C518.509 418.268 504.244 395.558 486.513 331.372C480.795 310.677 475.501 287.987 470.594 265.707C458.423 210.444 443.484 154.873 417.941 105.767C376.219 25.5632 305.047 0 248.228 0C195.534 0 156.165 24.9828 125.239 56.4589C116.693 65.1577 107.357 76.8769 97.9805 90.6494C124.954 97.1564 150.46 117.488 154.533 156.022C155.335 163.369 160.966 221.723 179.878 289.344C185.304 272.39 193.216 247.283 211.598 206.738C220.606 188.17 228.735 175.926 236.071 168.461C242.798 161.614 248.856 158.787 254.31 158.787C260.192 158.787 280.278 164.178 299.831 232.891C324.082 318.094 342.129 453.696 410.887 525.694C441.214 557.453 483.654 578 542.472 578C594.082 578 637.11 555.239 667.789 523.577C718.231 471.512 745.871 385.432 755.731 353.579C783.785 262.957 791.645 180.996 792.558 172.324C797.779 122.774 756.094 88.293 714.537 88.293Z" fill="url(#paint16_radial_1496_3066)"/>
<path d="M714.537 88.293C708.724 88.293 702.875 88.8427 697.14 89.9734C724.404 129.342 738.045 170.584 738.045 188.404C738.045 253.194 685.273 269.72 662.403 269.72C644.554 269.72 630.917 265.445 620.108 258.612C620.007 259.016 619.908 259.419 619.807 259.825C616.593 272.683 614.055 286.757 609.663 300.452C601.219 326.785 589.83 356.864 577.666 380.14C564.556 405.232 551.576 419.913 536.104 419.143C518.509 418.268 504.244 395.558 486.513 331.372C480.795 310.677 475.501 287.987 470.594 265.707C458.423 210.444 443.484 154.873 417.941 105.767C376.219 25.5632 305.047 0 248.228 0C195.534 0 156.165 24.9828 125.239 56.4589C116.693 65.1577 107.357 76.8769 97.9805 90.6494C124.954 97.1564 150.46 117.488 154.533 156.022C155.335 163.369 160.966 221.723 179.878 289.344C185.304 272.39 193.216 247.283 211.598 206.738C220.606 188.17 228.735 175.926 236.071 168.461C242.798 161.614 248.856 158.787 254.31 158.787C260.192 158.787 280.278 164.178 299.831 232.891C324.082 318.094 342.129 453.696 410.887 525.694C441.214 557.453 483.654 578 542.472 578C594.082 578 637.11 555.239 667.789 523.577C718.231 471.512 745.871 385.432 755.731 353.579C783.785 262.957 791.645 180.996 792.558 172.324C797.779 122.774 756.094 88.293 714.537 88.293Z" fill="url(#paint17_radial_1496_3066)"/>
<path d="M714.537 88.293C708.724 88.293 702.875 88.8427 697.14 89.9734C724.404 129.342 738.045 170.584 738.045 188.404C738.045 253.194 685.273 269.72 662.403 269.72C644.554 269.72 630.917 265.445 620.108 258.612C620.007 259.016 619.908 259.419 619.807 259.825C616.593 272.683 614.055 286.757 609.663 300.452C601.219 326.785 589.83 356.864 577.666 380.14C564.556 405.232 551.576 419.913 536.104 419.143C518.509 418.268 504.244 395.558 486.513 331.372C480.795 310.677 475.501 287.987 470.594 265.707C458.423 210.444 443.484 154.873 417.941 105.767C376.219 25.5632 305.047 0 248.228 0C195.534 0 156.165 24.9828 125.239 56.4589C116.693 65.1577 107.357 76.8769 97.9805 90.6494C124.954 97.1564 150.46 117.488 154.533 156.022C155.335 163.369 160.966 221.723 179.878 289.344C185.304 272.39 193.216 247.283 211.598 206.738C220.606 188.17 228.735 175.926 236.071 168.461C242.798 161.614 248.856 158.787 254.31 158.787C260.192 158.787 280.278 164.178 299.831 232.891C324.082 318.094 342.129 453.696 410.887 525.694C441.214 557.453 483.654 578 542.472 578C594.082 578 637.11 555.239 667.789 523.577C718.231 471.512 745.871 385.432 755.731 353.579C783.785 262.957 791.645 180.996 792.558 172.324C797.779 122.774 756.094 88.293 714.537 88.293Z" fill="url(#paint18_radial_1496_3066)"/>
<path d="M714.537 88.293C708.724 88.293 702.875 88.8427 697.14 89.9734C724.404 129.342 738.045 170.584 738.045 188.404C738.045 253.194 685.273 269.72 662.403 269.72C644.554 269.72 630.917 265.445 620.108 258.612C620.007 259.016 619.908 259.419 619.807 259.825C616.593 272.683 614.055 286.757 609.663 300.452C601.219 326.785 589.83 356.864 577.666 380.14C564.556 405.232 551.576 419.913 536.104 419.143C518.509 418.268 504.244 395.558 486.513 331.372C480.795 310.677 475.501 287.987 470.594 265.707C458.423 210.444 443.484 154.873 417.941 105.767C376.219 25.5632 305.047 0 248.228 0C195.534 0 156.165 24.9828 125.239 56.4589C116.693 65.1577 107.357 76.8769 97.9805 90.6494C124.954 97.1564 150.46 117.488 154.533 156.022C155.335 163.369 160.966 221.723 179.878 289.344C185.304 272.39 193.216 247.283 211.598 206.738C220.606 188.17 228.735 175.926 236.071 168.461C242.798 161.614 248.856 158.787 254.31 158.787C260.192 158.787 280.278 164.178 299.831 232.891C324.082 318.094 342.129 453.696 410.887 525.694C441.214 557.453 483.654 578 542.472 578C594.082 578 637.11 555.239 667.789 523.577C718.231 471.512 745.871 385.432 755.731 353.579C783.785 262.957 791.645 180.996 792.558 172.324C797.779 122.774 756.094 88.293 714.537 88.293Z" fill="url(#paint19_radial_1496_3066)"/>
<path d="M714.537 88.293C708.724 88.293 702.875 88.8427 697.14 89.9734C724.404 129.342 738.045 170.584 738.045 188.404C738.045 253.194 685.273 269.72 662.403 269.72C644.554 269.72 630.917 265.445 620.108 258.612C620.007 259.016 619.908 259.419 619.807 259.825C616.593 272.683 614.055 286.757 609.663 300.452C601.219 326.785 589.83 356.864 577.666 380.14C564.556 405.232 551.576 419.913 536.104 419.143C518.509 418.268 504.244 395.558 486.513 331.372C480.795 310.677 475.501 287.987 470.594 265.707C458.423 210.444 443.484 154.873 417.941 105.767C376.219 25.5632 305.047 0 248.228 0C195.534 0 156.165 24.9828 125.239 56.4589C116.693 65.1577 107.357 76.8769 97.9805 90.6494C124.954 97.1564 150.46 117.488 154.533 156.022C155.335 163.369 160.966 221.723 179.878 289.344C185.304 272.39 193.216 247.283 211.598 206.738C220.606 188.17 228.735 175.926 236.071 168.461C242.798 161.614 248.856 158.787 254.31 158.787C260.192 158.787 280.278 164.178 299.831 232.891C324.082 318.094 342.129 453.696 410.887 525.694C441.214 557.453 483.654 578 542.472 578C594.082 578 637.11 555.239 667.789 523.577C718.231 471.512 745.871 385.432 755.731 353.579C783.785 262.957 791.645 180.996 792.558 172.324C797.779 122.774 756.094 88.293 714.537 88.293Z" fill="url(#paint20_radial_1496_3066)"/>
<path d="M714.537 88.293C708.724 88.293 702.875 88.8427 697.14 89.9734C724.404 129.342 738.045 170.584 738.045 188.404C738.045 253.194 685.273 269.72 662.403 269.72C644.554 269.72 630.917 265.445 620.108 258.612C620.007 259.016 619.908 259.419 619.807 259.825C616.593 272.683 614.055 286.757 609.663 300.452C601.219 326.785 589.83 356.864 577.666 380.14C564.556 405.232 551.576 419.913 536.104 419.143C518.509 418.268 504.244 395.558 486.513 331.372C480.795 310.677 475.501 287.987 470.594 265.707C458.423 210.444 443.484 154.873 417.941 105.767C376.219 25.5632 305.047 0 248.228 0C195.534 0 156.165 24.9828 125.239 56.4589C116.693 65.1577 107.357 76.8769 97.9805 90.6494C124.954 97.1564 150.46 117.488 154.533 156.022C155.335 163.369 160.966 221.723 179.878 289.344C185.304 272.39 193.216 247.283 211.598 206.738C220.606 188.17 228.735 175.926 236.071 168.461C242.798 161.614 248.856 158.787 254.31 158.787C260.192 158.787 280.278 164.178 299.831 232.891C324.082 318.094 342.129 453.696 410.887 525.694C441.214 557.453 483.654 578 542.472 578C594.082 578 637.11 555.239 667.789 523.577C718.231 471.512 745.871 385.432 755.731 353.579C783.785 262.957 791.645 180.996 792.558 172.324C797.779 122.774 756.094 88.293 714.537 88.293Z" fill="url(#paint21_radial_1496_3066)"/>
<path d="M714.537 88.293C708.724 88.293 702.875 88.8427 697.14 89.9734C724.404 129.342 738.045 170.584 738.045 188.404C738.045 253.194 685.273 269.72 662.403 269.72C644.554 269.72 630.917 265.445 620.108 258.612C620.007 259.016 619.908 259.419 619.807 259.825C616.593 272.683 614.055 286.757 609.663 300.452C601.219 326.785 589.83 356.864 577.666 380.14C564.556 405.232 551.576 419.913 536.104 419.143C518.509 418.268 504.244 395.558 486.513 331.372C480.795 310.677 475.501 287.987 470.594 265.707C458.423 210.444 443.484 154.873 417.941 105.767C376.219 25.5632 305.047 0 248.228 0C195.534 0 156.165 24.9828 125.239 56.4589C116.693 65.1577 107.357 76.8769 97.9805 90.6494C124.954 97.1564 150.46 117.488 154.533 156.022C155.335 163.369 160.966 221.723 179.878 289.344C185.304 272.39 193.216 247.283 211.598 206.738C220.606 188.17 228.735 175.926 236.071 168.461C242.798 161.614 248.856 158.787 254.31 158.787C260.192 158.787 280.278 164.178 299.831 232.891C324.082 318.094 342.129 453.696 410.887 525.694C441.214 557.453 483.654 578 542.472 578C594.082 578 637.11 555.239 667.789 523.577C718.231 471.512 745.871 385.432 755.731 353.579C783.785 262.957 791.645 180.996 792.558 172.324C797.779 122.774 756.094 88.293 714.537 88.293Z" fill="url(#paint22_radial_1496_3066)"/>
<path d="M714.537 88.293C708.724 88.293 702.875 88.8427 697.14 89.9734C724.404 129.342 738.045 170.584 738.045 188.404C738.045 253.194 685.273 269.72 662.403 269.72C644.554 269.72 630.917 265.445 620.108 258.612C620.007 259.016 619.908 259.419 619.807 259.825C616.593 272.683 614.055 286.757 609.663 300.452C601.219 326.785 589.83 356.864 577.666 380.14C564.556 405.232 551.576 419.913 536.104 419.143C518.509 418.268 504.244 395.558 486.513 331.372C480.795 310.677 475.501 287.987 470.594 265.707C458.423 210.444 443.484 154.873 417.941 105.767C376.219 25.5632 305.047 0 248.228 0C195.534 0 156.165 24.9828 125.239 56.4589C116.693 65.1577 107.357 76.8769 97.9805 90.6494C124.954 97.1564 150.46 117.488 154.533 156.022C155.335 163.369 160.966 221.723 179.878 289.344C185.304 272.39 193.216 247.283 211.598 206.738C220.606 188.17 228.735 175.926 236.071 168.461C242.798 161.614 248.856 158.787 254.31 158.787C260.192 158.787 280.278 164.178 299.831 232.891C324.082 318.094 342.129 453.696 410.887 525.694C441.214 557.453 483.654 578 542.472 578C594.082 578 637.11 555.239 667.789 523.577C718.231 471.512 745.871 385.432 755.731 353.579C783.785 262.957 791.645 180.996 792.558 172.324C797.779 122.774 756.094 88.293 714.537 88.293Z" fill="url(#paint23_radial_1496_3066)"/>
<path d="M714.537 88.293C708.724 88.293 702.875 88.8427 697.14 89.9734C724.404 129.342 738.045 170.584 738.045 188.404C738.045 253.194 685.273 269.72 662.403 269.72C644.554 269.72 630.917 265.445 620.108 258.612C620.007 259.016 619.908 259.419 619.807 259.825C616.593 272.683 614.055 286.757 609.663 300.452C601.219 326.785 589.83 356.864 577.666 380.14C564.556 405.232 551.576 419.913 536.104 419.143C518.509 418.268 504.244 395.558 486.513 331.372C480.795 310.677 475.501 287.987 470.594 265.707C458.423 210.444 443.484 154.873 417.941 105.767C376.219 25.5632 305.047 0 248.228 0C195.534 0 156.165 24.9828 125.239 56.4589C116.693 65.1577 107.357 76.8769 97.9805 90.6494C124.954 97.1564 150.46 117.488 154.533 156.022C155.335 163.369 160.966 221.723 179.878 289.344C185.304 272.39 193.216 247.283 211.598 206.738C220.606 188.17 228.735 175.926 236.071 168.461C242.798 161.614 248.856 158.787 254.31 158.787C260.192 158.787 280.278 164.178 299.831 232.891C324.082 318.094 342.129 453.696 410.887 525.694C441.214 557.453 483.654 578 542.472 578C594.082 578 637.11 555.239 667.789 523.577C718.231 471.512 745.871 385.432 755.731 353.579C783.785 262.957 791.645 180.996 792.558 172.324C797.779 122.774 756.094 88.293 714.537 88.293Z" fill="url(#paint24_radial_1496_3066)"/>
<path d="M246.052 575.71C99.2142 575.71 49.238 389.754 38.0397 353.579C9.91782 262.739 1.36882 180.912 0.463819 172.324C-4.75816 122.774 34.9281 88.293 78.4841 88.293C111.464 88.293 149.74 108.063 154.81 156.027C155.691 164.094 162.395 233.673 186.114 309.486C210.867 388.609 237.126 419.038 256.036 419.038C286.574 419.038 305.207 340.494 321.679 265.707C333.813 210.608 346.932 155.086 372.83 105.767C417.888 19.9657 485.975 0 544.794 0C673.771 0 738.322 149.639 738.322 188.408C738.322 253.197 685.551 269.724 662.68 269.724C612.654 269.724 595.696 236.158 581.422 206.738C568.584 180.27 555.175 158.263 537.838 158.263C532.142 158.263 526.862 161.153 521.981 166.123C478.891 209.978 464.441 439.409 378.286 527.098C330.522 575.71 278.553 575.71 246.052 575.71Z" fill="url(#paint25_linear_1496_3066)"/>
<path d="M246.052 575.71C99.2142 575.71 49.238 389.754 38.0397 353.579C9.91782 262.739 1.36882 180.912 0.463819 172.324C-4.75816 122.774 34.9281 88.293 78.4841 88.293C111.464 88.293 149.74 108.063 154.81 156.027C155.691 164.094 162.395 233.673 186.114 309.486C210.867 388.609 237.126 419.038 256.036 419.038C286.574 419.038 305.207 340.494 321.679 265.707C333.813 210.608 346.932 155.086 372.83 105.767C417.888 19.9657 485.975 0 544.794 0C673.771 0 738.322 149.639 738.322 188.408C738.322 253.197 685.551 269.724 662.68 269.724C612.654 269.724 595.696 236.158 581.422 206.738C568.584 180.27 555.175 158.263 537.838 158.263C532.142 158.263 526.862 161.153 521.981 166.123C478.891 209.978 464.441 439.409 378.286 527.098C330.522 575.71 278.553 575.71 246.052 575.71Z" fill="url(#paint26_radial_1496_3066)"/>
<path d="M246.052 575.71C99.2142 575.71 49.238 389.754 38.0397 353.579C9.91782 262.739 1.36882 180.912 0.463819 172.324C-4.75816 122.774 34.9281 88.293 78.4841 88.293C111.464 88.293 149.74 108.063 154.81 156.027C155.691 164.094 162.395 233.673 186.114 309.486C210.867 388.609 237.126 419.038 256.036 419.038C286.574 419.038 305.207 340.494 321.679 265.707C333.813 210.608 346.932 155.086 372.83 105.767C417.888 19.9657 485.975 0 544.794 0C673.771 0 738.322 149.639 738.322 188.408C738.322 253.197 685.551 269.724 662.68 269.724C612.654 269.724 595.696 236.158 581.422 206.738C568.584 180.27 555.175 158.263 537.838 158.263C532.142 158.263 526.862 161.153 521.981 166.123C478.891 209.978 464.441 439.409 378.286 527.098C330.522 575.71 278.553 575.71 246.052 575.71Z" fill="url(#paint27_linear_1496_3066)"/>
<path d="M246.052 575.71C99.2142 575.71 49.238 389.754 38.0397 353.579C9.91782 262.739 1.36882 180.912 0.463819 172.324C-4.75816 122.774 34.9281 88.293 78.4841 88.293C111.464 88.293 149.74 108.063 154.81 156.027C155.691 164.094 162.395 233.673 186.114 309.486C210.867 388.609 237.126 419.038 256.036 419.038C286.574 419.038 305.207 340.494 321.679 265.707C333.813 210.608 346.932 155.086 372.83 105.767C417.888 19.9657 485.975 0 544.794 0C673.771 0 738.322 149.639 738.322 188.408C738.322 253.197 685.551 269.724 662.68 269.724C612.654 269.724 595.696 236.158 581.422 206.738C568.584 180.27 555.175 158.263 537.838 158.263C532.142 158.263 526.862 161.153 521.981 166.123C478.891 209.978 464.441 439.409 378.286 527.098C330.522 575.71 278.553 575.71 246.052 575.71Z" fill="url(#paint28_linear_1496_3066)"/>
<path d="M246.052 575.71C99.2142 575.71 49.238 389.754 38.0397 353.579C9.91782 262.739 1.36882 180.912 0.463819 172.324C-4.75816 122.774 34.9281 88.293 78.4841 88.293C111.464 88.293 149.74 108.063 154.81 156.027C155.691 164.094 162.395 233.673 186.114 309.486C210.867 388.609 237.126 419.038 256.036 419.038C286.574 419.038 305.207 340.494 321.679 265.707C333.813 210.608 346.932 155.086 372.83 105.767C417.888 19.9657 485.975 0 544.794 0C673.771 0 738.322 149.639 738.322 188.408C738.322 253.197 685.551 269.724 662.679 269.724C612.654 269.724 595.696 236.158 581.422 206.738C568.584 180.27 555.175 158.263 537.838 158.263C532.142 158.263 526.862 161.153 521.981 166.123C478.891 209.978 464.441 439.409 378.286 527.098C330.522 575.71 278.553 575.71 246.052 575.71Z" fill="url(#paint29_radial_1496_3066)"/>
</g>
<defs>
<linearGradient id="paint0_linear_1496_3066" x1="657.977" y1="168.913" x2="139.125" y2="338.838" gradientUnits="userSpaceOnUse">
<stop stop-color="#5CEE64"/>
<stop offset="1" stop-color="#00BBFF"/>
</linearGradient>
<radialGradient id="paint1_radial_1496_3066" cx="0" cy="0" r="1" gradientUnits="userSpaceOnUse" gradientTransform="translate(301.837 307.015) rotate(-120.825) scale(340.156 285.372)">
<stop stop-color="#007383"/>
<stop offset="0.407867" stop-color="#00717E" stop-opacity="0.75"/>
<stop offset="0.874482" stop-color="#007281" stop-opacity="0"/>
</radialGradient>
<radialGradient id="paint2_radial_1496_3066" cx="0" cy="0" r="1" gradientUnits="userSpaceOnUse" gradientTransform="translate(525.104 243.698) rotate(-126.696) scale(277.375 182.178)">
<stop stop-color="#218970"/>
<stop offset="0.459527" stop-color="#267E6A"/>
<stop offset="1" stop-color="#026C51" stop-opacity="0"/>
</radialGradient>
<radialGradient id="paint3_radial_1496_3066" cx="0" cy="0" r="1" gradientUnits="userSpaceOnUse" gradientTransform="translate(282.268 323.091) rotate(-107.446) scale(225.989 117.602)">
<stop stop-color="#178697"/>
<stop offset="0.407867" stop-color="#17838F" stop-opacity="0.79"/>
<stop offset="0.874482" stop-color="#007281" stop-opacity="0"/>
</radialGradient>
<radialGradient id="paint4_radial_1496_3066" cx="0" cy="0" r="1" gradientUnits="userSpaceOnUse" gradientTransform="translate(382.616 321.886) rotate(-120.825) scale(573.758 176.869)">
<stop stop-color="#25342F" stop-opacity="0.3"/>
<stop offset="1" stop-color="#25342F" stop-opacity="0"/>
</radialGradient>
<radialGradient id="paint5_radial_1496_3066" cx="0" cy="0" r="1" gradientUnits="userSpaceOnUse" gradientTransform="translate(484.859 249.992) rotate(85.1046) scale(216.169 122.443)">
<stop stop-color="#056D4F"/>
<stop offset="0.232593" stop-color="#056C4E" stop-opacity="0.75"/>
<stop offset="0.598902" stop-color="#056C4E" stop-opacity="0.300824"/>
<stop offset="0.874482" stop-color="#056C4F" stop-opacity="0"/>
</radialGradient>
<radialGradient id="paint6_radial_1496_3066" cx="0" cy="0" r="1" gradientUnits="userSpaceOnUse" gradientTransform="translate(494.408 -99.6147) rotate(57.1132) scale(254.011 133.154)">
<stop stop-color="#22B67B"/>
<stop offset="0.407867" stop-color="#24BE82"/>
<stop offset="1" stop-color="#24BE82" stop-opacity="0.07"/>
</radialGradient>
<linearGradient id="paint7_linear_1496_3066" x1="-195.112" y1="282.833" x2="172.488" y2="285.851" gradientUnits="userSpaceOnUse">
<stop stop-color="#09F8FF"/>
<stop offset="1" stop-color="#0BF7F9" stop-opacity="0"/>
</linearGradient>
<radialGradient id="paint8_radial_1496_3066" cx="0" cy="0" r="1" gradientUnits="userSpaceOnUse" gradientTransform="translate(-116.14 -48.7223) rotate(49.6893) scale(331.696 330.794)">
<stop stop-color="#09F8FF"/>
<stop offset="1" stop-color="#0BF7F9" stop-opacity="0"/>
</radialGradient>
<radialGradient id="paint9_radial_1496_3066" cx="0" cy="0" r="1" gradientUnits="userSpaceOnUse" gradientTransform="translate(149.354 -215.818) rotate(48.0508) scale(672.72 671.563)">
<stop stop-color="#00B8FF"/>
<stop offset="0.745423" stop-color="#00B9FC" stop-opacity="0"/>
</radialGradient>
<radialGradient id="paint10_radial_1496_3066" cx="0" cy="0" r="1" gradientUnits="userSpaceOnUse" gradientTransform="translate(184.938 289.061) rotate(-107.446) scale(324.418 224.533)">
<stop stop-color="#00BCFF" stop-opacity="0.76"/>
<stop offset="0.57273" stop-color="#00BAFC" stop-opacity="0"/>
</radialGradient>
<radialGradient id="paint11_radial_1496_3066" cx="0" cy="0" r="1" gradientUnits="userSpaceOnUse" gradientTransform="translate(677.527 165.831) rotate(-129.512) scale(229.31 160.498)">
<stop stop-color="#5FEC50"/>
<stop offset="1" stop-color="#3CC08E" stop-opacity="0"/>
</radialGradient>
<radialGradient id="paint12_radial_1496_3066" cx="0" cy="0" r="1" gradientUnits="userSpaceOnUse" gradientTransform="translate(644.731 313.61) rotate(-79.109) scale(69.4581 47.9793)">
<stop stop-color="#28855B"/>
<stop offset="1" stop-color="#14795C" stop-opacity="0"/>
</radialGradient>
<radialGradient id="paint13_radial_1496_3066" cx="0" cy="0" r="1" gradientUnits="userSpaceOnUse" gradientTransform="translate(641.386 308.497) rotate(-77.8959) scale(57.2594 79.9222)">
<stop stop-color="#28855B"/>
<stop offset="1" stop-color="#14795C" stop-opacity="0"/>
</radialGradient>
<radialGradient id="paint14_radial_1496_3066" cx="0" cy="0" r="1" gradientUnits="userSpaceOnUse" gradientTransform="translate(709.511 205.335) rotate(-132.751) scale(189.835 133.347)">
<stop stop-color="#5FF05B"/>
<stop offset="0.813285" stop-color="#5DE955" stop-opacity="0"/>
</radialGradient>
<radialGradient id="paint15_radial_1496_3066" cx="0" cy="0" r="1" gradientUnits="userSpaceOnUse" gradientTransform="translate(650.181 259.897) rotate(37.4938) scale(168.787 234.694)">
<stop stop-color="#123AA8"/>
<stop offset="0.966119" stop-color="#123AA8" stop-opacity="0"/>
</radialGradient>
<radialGradient id="paint16_radial_1496_3066" cx="0" cy="0" r="1" gradientUnits="userSpaceOnUse" gradientTransform="translate(608.211 278.938) rotate(8.49757) scale(199.058 297.513)">
<stop stop-color="#123AA8"/>
<stop offset="0.592487" stop-color="#123AA8" stop-opacity="0"/>
</radialGradient>
<radialGradient id="paint17_radial_1496_3066" cx="0" cy="0" r="1" gradientUnits="userSpaceOnUse" gradientTransform="translate(624.363 303.663) rotate(24.6929) scale(170.074 303.324)">
<stop stop-color="#123AA8"/>
<stop offset="0.756788" stop-color="#123AA8" stop-opacity="0"/>
</radialGradient>
<radialGradient id="paint18_radial_1496_3066" cx="0" cy="0" r="1" gradientUnits="userSpaceOnUse" gradientTransform="translate(604.397 313.752) rotate(95.7949) scale(306.08 167.51)">
<stop stop-color="#123AA8"/>
<stop offset="0.592487" stop-color="#123AA8" stop-opacity="0"/>
<stop offset="1" stop-color="#123AA8" stop-opacity="0"/>
</radialGradient>
<radialGradient id="paint19_radial_1496_3066" cx="0" cy="0" r="1" gradientUnits="userSpaceOnUse" gradientTransform="translate(650.181 178.617) rotate(93.6621) scale(368.36 131.281)">
<stop stop-color="#123AA8"/>
<stop offset="0.884611" stop-color="#123AA8" stop-opacity="0"/>
</radialGradient>
<radialGradient id="paint20_radial_1496_3066" cx="0" cy="0" r="1" gradientUnits="userSpaceOnUse" gradientTransform="translate(233.295 255.208) rotate(84.8366) scale(195.467 103.417)">
<stop stop-color="#123AA8"/>
<stop offset="0.884611" stop-color="#123AA8" stop-opacity="0"/>
</radialGradient>
<radialGradient id="paint21_radial_1496_3066" cx="0" cy="0" r="1" gradientUnits="userSpaceOnUse" gradientTransform="translate(233.155 260.466) rotate(87.2542) scale(204.002 168.193)">
<stop stop-color="#123AA8"/>
<stop offset="0.884611" stop-color="#123AA8" stop-opacity="0"/>
</radialGradient>
<radialGradient id="paint22_radial_1496_3066" cx="0" cy="0" r="1" gradientUnits="userSpaceOnUse" gradientTransform="translate(279.506 452.155) rotate(-23.2009) scale(227.237 444.589)">
<stop stop-color="#123AA8"/>
<stop offset="0.708977" stop-color="#123AA8" stop-opacity="0"/>
</radialGradient>
<radialGradient id="paint23_radial_1496_3066" cx="0" cy="0" r="1" gradientUnits="userSpaceOnUse" gradientTransform="translate(198.671 210.589) rotate(-159.501) scale(150.541 258.034)">
<stop stop-color="#1A3DA0"/>
<stop offset="0.708977" stop-color="#123AA8" stop-opacity="0"/>
</radialGradient>
<radialGradient id="paint24_radial_1496_3066" cx="0" cy="0" r="1" gradientUnits="userSpaceOnUse" gradientTransform="translate(66.1787 261.886) rotate(16.7707) scale(287.109 290.165)">
<stop stop-color="#1E3882"/>
<stop offset="0.761404" stop-color="#123AA8" stop-opacity="0"/>
</radialGradient>
<linearGradient id="paint25_linear_1496_3066" x1="-23.8737" y1="102.883" x2="259.237" y2="283.332" gradientUnits="userSpaceOnUse">
<stop offset="0.229329" stop-color="#1DC4FF"/>
<stop offset="1" stop-color="#1CC1FF" stop-opacity="0"/>
</linearGradient>
<radialGradient id="paint26_radial_1496_3066" cx="0" cy="0" r="1" gradientUnits="userSpaceOnUse" gradientTransform="translate(-116.157 -48.7357) rotate(49.6893) scale(331.696 330.794)">
<stop stop-color="#09F8FF"/>
<stop offset="1" stop-color="#0BF7F9" stop-opacity="0"/>
</radialGradient>
<linearGradient id="paint27_linear_1496_3066" x1="-8.23714" y1="112.119" x2="71.2108" y2="184.044" gradientUnits="userSpaceOnUse">
<stop stop-color="#26FBFF"/>
<stop offset="0.637346" stop-color="#0BF7F9" stop-opacity="0"/>
</linearGradient>
<linearGradient id="paint28_linear_1496_3066" x1="-29.3187" y1="167.253" x2="80.4368" y2="175.073" gradientUnits="userSpaceOnUse">
<stop stop-color="#26FBFF"/>
<stop offset="0.637346" stop-color="#0BF7F9" stop-opacity="0"/>
</linearGradient>
<radialGradient id="paint29_radial_1496_3066" cx="0" cy="0" r="1" gradientUnits="userSpaceOnUse" gradientTransform="translate(184.928 289.064) rotate(-107.446) scale(324.418 224.533)">
<stop stop-color="#00BCFF" stop-opacity="0.76"/>
<stop offset="0.57273" stop-color="#00BAFC" stop-opacity="0"/>
</radialGradient>
<clipPath id="clip0_1496_3066">
<rect width="793" height="578" fill="white"/>
</clipPath>
</defs>
</svg>
